<?xml version="1.0" encoding="utf-8"?>
<!DOCTYPE svg PUBLIC "-//W3C//DTD SVG 1.0//EN" "http://www.w3.org/TR/2001/REC-SVG-20010904/DTD/svg10.dtd">
<svg version="1.0" xmlns="http://www.w3.org/2000/svg" width="496px" height="376px" viewBox="0 0 496 376" preserveAspectRatio="xMidYMid meet">
 <g fill="#ffffff">
  <path d="M40.1 344.9 c-5.4 -2.1 -9.1 -8 -9.1 -14.3 0 -2.4 12 -27.2 41.6 -86.2 39.8 -79.3 66.5 -132.2 68.3 -135.4 0.4 -0.8 7 -14.1 14.6 -29.5 7.5 -15.4 14.5 -28.8 15.4 -29.9 3.5 -4 6.7 -4.7 20.8 -4.7 11.1 0.1 14.1 0.4 16.7 1.8 2.6 1.5 6.3 8.2 24.2 43.8 11.6 23.1 21 42.3 20.8 42.6 -0.2 0.3 0.3 1.5 1.1 2.5 3.4 4.5 19.8 39.2 20.2 42.9 0.9 8.1 -4.8 14.3 -14.4 15.6 -6.6 1 -11.5 -0.2 -15.2 -3.5 -1.9 -1.7 -23.1 -43.3 -23.1 -45.4 0 -0.3 -2 -4.5 -4.5 -9.4 -2.5 -4.8 -4.2 -8.8 -3.8 -8.8 0.4 0 0.3 -0.4 -0.4 -0.8 -0.6 -0.4 -2.9 -4.6 -5.1 -9.2 -4.4 -9.6 -9.1 -14.5 -14.8 -15.6 -4.2 -0.8 -10.1 0.8 -13.7 3.6 -1.6 1.3 -7.4 11.6 -14.8 26.2 -6.7 13.4 -13.8 27.4 -15.9 31.3 -2 3.8 -12.6 24.6 -23.5 46 -10.9 21.5 -22.1 43.5 -25 49 -2.9 5.5 -13.4 26.2 -23.5 46 -10.1 19.8 -19 36.8 -19.9 37.8 -3.4 4 -11.6 5.8 -17 3.6z"/>
  <path d="M109.2 344 c-3.9 -2.4 -6.6 -8 -5.7 -12.1 0.4 -1.5 4.6 -10.6 9.4 -20.1 61.7 -121.7 56.3 -111.6 60.7 -113.4 3.8 -1.6 15 -1.9 18.8 -0.5 3.4 1.3 6 7.2 5.3 11.9 -0.3 2 -5.2 13.5 -11 25.4 -5.8 11.9 -13.1 27.2 -16.3 34 -3.1 6.8 -11.1 23.3 -17.7 36.8 -6.5 13.5 -12.9 26.8 -14.2 29.5 -1.2 2.8 -3.5 6.1 -4.9 7.5 -2.5 2.2 -3.8 2.5 -11.9 2.8 -7.9 0.3 -9.7 0 -12.5 -1.8z"/>
  <path d="M325.3 344.1 c-2.6 -1.6 -6 -7.6 -19.8 -35.3 -9.2 -18.3 -17.5 -34.1 -18.4 -35.2 -3.8 -4.4 -6 -4.6 -46.6 -4.6 l-38.6 0 -2.4 -2.5 c-1.4 -1.3 -2.5 -3.3 -2.5 -4.5 0 -2.6 10 -24 11.2 -24 0.5 0 0.6 -0.4 0.3 -1 -1.1 -1.9 4.4 -2.1 44.5 -1.8 l40.5 0.3 5.5 2.6 c3 1.5 6.7 3.9 8.1 5.5 1.5 1.6 12.1 21.7 23.8 44.8 22 43.5 22.8 45.8 19.7 51.4 -2.4 4.5 -6.5 6.2 -14.6 6.2 -5.6 0 -8.3 -0.5 -10.7 -1.9z"/>
  <path d="M401.4 344.6 c-3.2 -1.4 -5.6 -5.5 -6.9 -11.3 -0.3 -1.8 -3.8 -9.3 -7.6 -16.7 -3.8 -7.3 -6.9 -14.1 -6.9 -14.9 0 -0.8 -0.4 -1.7 -0.9 -1.9 -1 -0.4 -5.6 -9 -32.1 -60.3 -4.6 -8.8 -13.5 -25.9 -19.8 -38 -25.5 -48.8 -71.2 -141.6 -71.2 -144.6 0 -1.6 0.7 -4.3 1.5 -5.9 2.6 -5 5 -6 14.8 -6 9 0 12.2 0.9 14.5 4.1 1.5 2.1 0.4 -0.1 42.2 84.4 43.5 87.7 46.2 93.4 45.4 94.7 -0.4 0.6 -0.3 0.8 0.3 0.5 0.5 -0.3 5.3 8 10.5 18.6 26.2 52.4 39 78.6 40.3 82.3 1.4 4.3 1 8.8 -0.8 7.7 -0.5 -0.3 -0.7 -0.1 -0.4 0.5 1.1 1.7 -0.3 4 -3.8 6.2 -3.9 2.4 -14.2 2.7 -19.1 0.6z"/>
 </g>
</svg>